<svg xmlns="http://www.w3.org/2000/svg" width="268.865" height="170.146" viewBox="0 0 268.865 170.146">
    <g id="undraw_aircraft_fbvl" transform="translate(0.023 -0.01)">
        <path id="Path_61" data-name="Path 61"
              d="M285.822,391.553a60.587,60.587,0,0,1-11.833,2.261c-13.656,1.639-32.371,2.22-32.371,2.22s-96.2,7.979-168.307-21.7c0,0-10.488-5.5-.759-12.9a31.683,31.683,0,0,1,4.76-2.9l.119-.119A25.262,25.262,0,0,1,81,355.664a24.991,24.991,0,0,1,17.72-3.981L288.1,382.312S295.015,388.156,285.822,391.553Z"
              transform="translate(-68.44 -291.232)" fill="#063b9e"/>
        <path id="Path_62" data-name="Path 62"
              d="M778.88,372.307l39.644-28.127L836,347.2l-17.108,29.746S779.335,377.264,778.88,372.307Z"
              transform="translate(-599.23 -285.867)" fill="#063b9e"/>
        <path id="Path_63" data-name="Path 63"
              d="M315.78,208.776l78.967-22.146,12.728,2.66L371.8,205.337,360.656,217.81Z"
              transform="translate(-235.938 -139.425)" fill="#063b9e"/>
        <path id="Path_64" data-name="Path 64"
              d="M273.989,423.593c-13.656,1.639-32.371,2.22-32.371,2.22s-96.2,7.979-168.307-21.7c0,0-10.488-5.5-.759-12.9l.033.137s15.558,10.515,89.894,19.293Z"
              transform="translate(-68.44 -321.011)" fill="#e5eaf2"/>
        <path id="Path_65" data-name="Path 65"
              d="M830.6,504.2l35.3,14.415,8.869-.984-21.117-15.872S828.111,496.312,830.6,504.2Z"
              transform="translate(-637.74 -402.228)" fill="#063b9e"/>
        <path id="Path_66" data-name="Path 66"
              d="M112.053,375.833c-1.684.028-5.543-2.8-7.943-4.7a25.258,25.258,0,0,1,3.573-2.754c1.935,1.484,5.377,3.887,7.291,3.793C117.739,372.06,114.59,375.787,112.053,375.833Z"
              transform="translate(-95.107 -303.947)" fill="#e5eaf2"/>
        <path id="Path_67" data-name="Path 67"
              d="M462.573,545.609,439.906,546.8l-63.73-42.972-11.83-7.979-5.746-3.877c10.781-9.1,54.767,3.452,54.767,3.452a3.881,3.881,0,0,1,1.072,3.2,19.755,19.755,0,0,1-1.664,6.343c-.106.253-.172.387-.172.387Z"
              transform="translate(-285.237 -393.806)" fill="#063b9e"/>
        <path id="Path_68" data-name="Path 68"
              d="M387.9,600.269l-3.933,2.488,2.382-4.332a3.883,3.883,0,0,0-2.372-.847h-.063a4.343,4.343,0,0,1-.814-.061l-1.33.845.569-1.037a4.75,4.75,0,0,1-2.327-1.77l-2.38,1.517,1.5-2.736a6.961,6.961,0,0,0-5.334-2.7,7.308,7.308,0,0,0-6.1,3.768,4.567,4.567,0,0,1-4.046,2.175h-.132c-2.734,0-4.949,3.1-4.949,6.922s2.215,6.922,4.949,6.922a3.693,3.693,0,0,0,1.722-.432,7.151,7.151,0,0,1,5.991-.116,6.25,6.25,0,0,0,5.093,0,7.149,7.149,0,0,1,5.935.114,3.723,3.723,0,0,0,1.707.422c2.734,0,4.949-3.1,4.949-6.922A8.794,8.794,0,0,0,387.9,600.269Z"
              transform="translate(-285.215 -470.746)" fill="#f2f2f2"/>
        <path id="Path_69" data-name="Path 69"
              d="M380.556,637.039a7.334,7.334,0,0,0-4.241.46,6.229,6.229,0,0,1-5.091,0,7.134,7.134,0,0,0-5.991.116,3.725,3.725,0,0,1-1.725.432c-2.428,0-4.448-2.448-4.868-5.675a4.619,4.619,0,0,0,1.214-1.307,6.831,6.831,0,0,1,12.185-.048,4.679,4.679,0,0,0,4.034,2.218h.063C378.067,633.23,379.742,634.778,380.556,637.039Z"
              transform="translate(-285.267 -497.387)" opacity="0.03"/>
        <path id="Path_70" data-name="Path 70"
              d="M826.9,587.269l-3.932,2.489,2.382-4.332a3.883,3.883,0,0,0-2.372-.847h-.063a4.343,4.343,0,0,1-.814-.061l-1.33.845.569-1.037a4.749,4.749,0,0,1-2.327-1.77l-2.38,1.517,1.5-2.736a6.961,6.961,0,0,0-5.334-2.7,7.308,7.308,0,0,0-6.1,3.768,4.568,4.568,0,0,1-4.046,2.175h-.131c-2.734,0-4.949,3.1-4.949,6.922s2.215,6.922,4.949,6.922a3.691,3.691,0,0,0,1.722-.432,7.152,7.152,0,0,1,5.991-.116,6.25,6.25,0,0,0,5.093,0,7.149,7.149,0,0,1,5.935.114,3.723,3.723,0,0,0,1.707.422c2.734,0,4.949-3.1,4.949-6.922A8.794,8.794,0,0,0,826.9,587.269Z"
              transform="translate(-613.193 -461.033)" fill="#f2f2f2"/>
        <path id="Path_71" data-name="Path 71"
              d="M819.556,624.039a7.334,7.334,0,0,0-4.241.46,6.229,6.229,0,0,1-5.091,0,7.134,7.134,0,0,0-5.991.116,3.726,3.726,0,0,1-1.725.432c-2.428,0-4.448-2.448-4.868-5.675a4.614,4.614,0,0,0,1.214-1.307,6.831,6.831,0,0,1,12.185-.048,4.679,4.679,0,0,0,4.046,2.218h.063C817.067,620.23,818.742,621.778,819.556,624.039Z"
              transform="translate(-613.245 -487.675)" opacity="0.03"/>
        <path id="Path_72" data-name="Path 72"
              d="M826.9,259.269l-3.932,2.489,2.382-4.332a3.881,3.881,0,0,0-2.372-.847h-.063a4.351,4.351,0,0,1-.814-.061l-1.33.845.569-1.037a4.749,4.749,0,0,1-2.327-1.77l-2.38,1.517,1.5-2.736a6.961,6.961,0,0,0-5.334-2.7,7.308,7.308,0,0,0-6.1,3.768,4.567,4.567,0,0,1-4.046,2.175h-.131c-2.734,0-4.949,3.1-4.949,6.922s2.215,6.922,4.949,6.922a3.692,3.692,0,0,0,1.722-.432,7.152,7.152,0,0,1,5.991-.116,6.249,6.249,0,0,0,5.093.013,7.149,7.149,0,0,1,5.935.114,3.722,3.722,0,0,0,1.707.422c2.734,0,4.949-3.1,4.949-6.922A8.794,8.794,0,0,0,826.9,259.269Z"
              transform="translate(-613.193 -215.983)" fill="#f2f2f2"/>
        <path id="Path_73" data-name="Path 73"
              d="M819.556,296.039a7.333,7.333,0,0,0-4.241.46,6.229,6.229,0,0,1-5.091,0,7.134,7.134,0,0,0-5.991.116,3.726,3.726,0,0,1-1.725.432c-2.428,0-4.448-2.448-4.868-5.675a4.616,4.616,0,0,0,1.214-1.307,6.831,6.831,0,0,1,12.185-.048,4.679,4.679,0,0,0,4.046,2.218h.063C817.067,292.23,818.742,293.778,819.556,296.039Z"
              transform="translate(-613.245 -242.625)" opacity="0.03"/>
        <path id="Path_74" data-name="Path 74"
              d="M228.362,236.692l-1.96,1.242,1.189-2.16a1.927,1.927,0,0,0-1.184-.425h-.03a2.416,2.416,0,0,1-.407-.03l-.663.42.283-.506a2.367,2.367,0,0,1-1.161-.883l-1.186.759.759-1.363a3.467,3.467,0,0,0-2.66-1.345,3.616,3.616,0,0,0-3.035,1.879,2.276,2.276,0,0,1-2.023,1.085h-.066c-1.363,0-2.468,1.548-2.468,3.455s1.105,3.452,2.468,3.452a1.851,1.851,0,0,0,.86-.215,3.558,3.558,0,0,1,2.989-.058,3.113,3.113,0,0,0,2.529,0,3.561,3.561,0,0,1,2.961.058,1.877,1.877,0,0,0,.85.21c1.363,0,2.468-1.545,2.468-3.452a4.405,4.405,0,0,0-.513-2.122Z"
              transform="translate(-177.019 -202.356)" fill="#f2f2f2"/>
        <path id="Path_75" data-name="Path 75"
              d="M224.635,254.983a3.631,3.631,0,0,0-2.117.23,3.146,3.146,0,0,1-1.264.268,3.1,3.1,0,0,1-1.277-.276,3.566,3.566,0,0,0-2.989.061,1.841,1.841,0,0,1-.857.215c-1.211,0-2.22-1.221-2.43-2.83a2.377,2.377,0,0,0,.607-.652,3.4,3.4,0,0,1,6.07-.023,2.332,2.332,0,0,0,2.023,1.105h.033A2.545,2.545,0,0,1,224.635,254.983Z"
              transform="translate(-176.982 -215.595)" opacity="0.03"/>
        <path id="Path_76" data-name="Path 76"
              d="M918.362,725.692l-1.96,1.242,1.189-2.16a1.927,1.927,0,0,0-1.184-.425h-.03a2.419,2.419,0,0,1-.407-.03l-.663.42.283-.506a2.367,2.367,0,0,1-1.161-.883l-1.186.759.759-1.363a3.468,3.468,0,0,0-2.66-1.345,3.616,3.616,0,0,0-3.035,1.879,2.276,2.276,0,0,1-2.023,1.085h-.066c-1.363,0-2.468,1.548-2.468,3.455s1.105,3.452,2.468,3.452a1.852,1.852,0,0,0,.86-.215,3.559,3.559,0,0,1,2.989-.058,3.112,3.112,0,0,0,2.529,0,3.561,3.561,0,0,1,2.961.058,1.876,1.876,0,0,0,.85.21c1.363,0,2.468-1.545,2.468-3.452a4.4,4.4,0,0,0-.513-2.122Z"
              transform="translate(-692.521 -567.69)" fill="#f2f2f2"/>
        <path id="Path_77" data-name="Path 77"
              d="M914.635,743.983a3.631,3.631,0,0,0-2.117.23,3.144,3.144,0,0,1-1.264.268,3.1,3.1,0,0,1-1.277-.276,3.566,3.566,0,0,0-2.989.061,1.839,1.839,0,0,1-.857.215c-1.211,0-2.22-1.221-2.43-2.83a2.377,2.377,0,0,0,.607-.652,3.4,3.4,0,0,1,6.069-.023,2.332,2.332,0,0,0,2.023,1.105h.033A2.545,2.545,0,0,1,914.635,743.983Z"
              transform="translate(-692.483 -580.928)" opacity="0.03"/>
        <path id="Path_78" data-name="Path 78"
              d="M198.362,751.692l-1.96,1.242,1.189-2.16a1.927,1.927,0,0,0-1.184-.425h-.03a2.406,2.406,0,0,1-.407-.03l-.663.42.283-.506a2.367,2.367,0,0,1-1.161-.883l-1.186.759.759-1.363a3.467,3.467,0,0,0-2.66-1.345,3.616,3.616,0,0,0-3.035,1.879,2.276,2.276,0,0,1-2.023,1.085h-.066c-1.363,0-2.468,1.548-2.468,3.455s1.105,3.452,2.468,3.452a1.851,1.851,0,0,0,.86-.215,3.558,3.558,0,0,1,2.989-.058,3.113,3.113,0,0,0,2.529,0,3.561,3.561,0,0,1,2.961.058,1.877,1.877,0,0,0,.85.21c1.363,0,2.468-1.545,2.468-3.452A4.406,4.406,0,0,0,198.362,751.692Z"
              transform="translate(-154.606 -587.115)" fill="#f2f2f2"/>
        <path id="Path_79" data-name="Path 79"
              d="M194.635,769.983a3.631,3.631,0,0,0-2.117.23,3.15,3.15,0,0,1-1.264.268,3.1,3.1,0,0,1-1.277-.276,3.566,3.566,0,0,0-2.989.061,1.843,1.843,0,0,1-.857.215c-1.211,0-2.22-1.222-2.43-2.83a2.375,2.375,0,0,0,.607-.652,3.4,3.4,0,0,1,6.07-.023,2.331,2.331,0,0,0,2.023,1.105h.033A2.546,2.546,0,0,1,194.635,769.983Z"
              transform="translate(-154.569 -600.353)" opacity="0.03"/>
        <path id="Path_80" data-name="Path 80"
              d="M512.9,122.269l-3.932,2.489,2.382-4.332a3.882,3.882,0,0,0-2.372-.847h-.063a4.354,4.354,0,0,1-.814-.061l-1.33.845.569-1.037a4.749,4.749,0,0,1-2.327-1.77l-2.38,1.517,1.5-2.736a6.961,6.961,0,0,0-5.334-2.7,7.308,7.308,0,0,0-6.1,3.768,4.567,4.567,0,0,1-4.046,2.175h-.132c-2.734,0-4.949,3.1-4.949,6.922s2.215,6.922,4.949,6.922a3.692,3.692,0,0,0,1.722-.432,7.152,7.152,0,0,1,5.991-.116,6.249,6.249,0,0,0,5.093.013,7.149,7.149,0,0,1,5.935.114,3.723,3.723,0,0,0,1.707.422c2.734,0,4.949-3.1,4.949-6.922a8.8,8.8,0,0,0-1.017-4.236Z"
              transform="translate(-378.602 -113.63)" fill="#f2f2f2"/>
        <path id="Path_81" data-name="Path 81"
              d="M505.556,159.039a7.334,7.334,0,0,0-4.241.46,6.229,6.229,0,0,1-5.091,0,7.134,7.134,0,0,0-5.991.116,3.725,3.725,0,0,1-1.725.432c-2.428,0-4.448-2.448-4.868-5.675a4.618,4.618,0,0,0,1.214-1.307,6.831,6.831,0,0,1,12.185-.048,4.679,4.679,0,0,0,4.046,2.218h.063C503.067,155.23,504.742,156.778,505.556,159.039Z"
              transform="translate(-378.655 -140.272)" opacity="0.03"/>
        <path id="Path_82" data-name="Path 82"
              d="M1086.362,306.692l-1.96,1.242,1.188-2.16a1.927,1.927,0,0,0-1.183-.425h-.03a2.422,2.422,0,0,1-.407-.03l-.663.42.283-.506a2.367,2.367,0,0,1-1.161-.883l-1.186.759.759-1.363a3.467,3.467,0,0,0-2.66-1.345,3.616,3.616,0,0,0-3.035,1.879,2.276,2.276,0,0,1-2.023,1.085h-.066c-1.363,0-2.468,1.548-2.468,3.455s1.105,3.452,2.468,3.452a1.85,1.85,0,0,0,.86-.215,3.558,3.558,0,0,1,2.989-.058,3.113,3.113,0,0,0,2.529,0,3.561,3.561,0,0,1,2.962.058,1.876,1.876,0,0,0,.85.21c1.363,0,2.468-1.545,2.468-3.452A4.4,4.4,0,0,0,1086.362,306.692Z"
              transform="translate(-818.034 -254.653)" fill="#f2f2f2"/>
        <path id="Path_83" data-name="Path 83"
              d="M1082.672,324.983a3.632,3.632,0,0,0-2.117.23,3.146,3.146,0,0,1-1.265.268,3.1,3.1,0,0,1-1.265-.276,3.566,3.566,0,0,0-2.989.061,1.84,1.84,0,0,1-.857.215c-1.211,0-2.22-1.221-2.43-2.83a2.375,2.375,0,0,0,.607-.652,3.4,3.4,0,0,1,6.07-.023,2.332,2.332,0,0,0,2.01,1.105h.033A2.545,2.545,0,0,1,1082.672,324.983Z"
              transform="translate(-818.034 -267.892)" opacity="0.03"/>
    </g>
</svg>
